<svg width="23" height="31" viewBox="0 0 23 31" fill="none" xmlns="http://www.w3.org/2000/svg">
<path fill-rule="evenodd" clip-rule="evenodd" d="M4.25719 15.3882L7.19184 17.075L6.47743 18.3054C6.28644 18.6313 5.97474 18.869 5.60982 18.9668C5.24489 19.0646 4.85612 19.0148 4.52768 18.8281L2.82837 17.8515L4.25719 15.3898V15.3882Z" fill="#D0021B"/>
<path fill-rule="evenodd" clip-rule="evenodd" d="M1.875 19.4931L2.42391 18.5475L4.63878 19.8176L6.16525 23.7722L4.48876 23.6637L3.87158 20.6389L1.875 19.4931Z" fill="#D0021B"/>
<path fill-rule="evenodd" clip-rule="evenodd" d="M5.4916 30.0268L5.00877 26.577L4.09829 26.0544L0.84375 27.3674C1.33318 28.1651 2.0155 28.8268 2.82786 29.2915C3.64022 29.7562 4.55647 30.009 5.49219 30.0266L5.4916 30.0268Z" fill="#D0021B"/>
<path fill-rule="evenodd" clip-rule="evenodd" d="M0.431012 26.5513L4.96733 25.0879L4.93002 24.5277L0.00415039 24.6775C0.0425321 25.3213 0.186752 25.9544 0.431012 26.5513V26.5513Z" fill="#D0021B"/>
<path fill-rule="evenodd" clip-rule="evenodd" d="M0 24.0566L3.30118 24.1503L3.38711 21.4726L1.39033 20.3271L0.800935 21.3414C0.318919 22.1686 0.0441294 23.1002 0 24.0566Z" fill="#D0021B"/>
<path fill-rule="evenodd" clip-rule="evenodd" d="M14.299 21.1537L11.3635 19.4669L10.6491 20.6993C10.4609 21.0254 10.4099 21.4129 10.5073 21.7766C10.6048 22.1404 10.8426 22.4505 11.1687 22.6389L12.8698 23.6149L14.2986 21.1541L14.299 21.1537Z" fill="#D0021B"/>
<path fill-rule="evenodd" clip-rule="evenodd" d="M11.9165 25.2557L12.4654 24.3095L10.2509 23.0394L6.57544 23.9701L7.50814 25.3593L9.78275 24.0297L11.9165 25.2557Z" fill="#D0021B"/>
<path fill-rule="evenodd" clip-rule="evenodd" d="M6.48907 30.0297L5.49683 25.3926L6.00287 25.1445L8.33404 29.4614C7.75382 29.7498 7.13046 29.9418 6.48847 30.0297H6.48907Z" fill="#D0021B"/>
<path fill-rule="evenodd" clip-rule="evenodd" d="M8.8777 29.1544L7.14624 26.3562L9.43454 24.9441L11.4317 26.0895L10.8419 27.1066C10.3613 27.9374 9.68735 28.64 8.8773 29.1548L8.8777 29.1544Z" fill="#D0021B"/>
<path fill-rule="evenodd" clip-rule="evenodd" d="M11.0656 19.1083L7.1165 22.6853L6.43066 22.2924L7.57412 17.0931C8.49869 16.7001 9.32046 16.647 9.94994 17.0069C10.582 17.3699 10.9475 18.1101 11.065 19.1087L11.0656 19.1083Z" fill="#D0021B"/>
<path fill-rule="evenodd" clip-rule="evenodd" d="M7.40362 6.44997C7.14802 6.87822 6.91028 7.31818 6.67969 7.75774C7.63422 8.21913 8.57863 8.70831 9.51174 9.21276C10.4274 9.01789 11.3551 8.83571 12.2979 8.68052C13.1959 8.53585 14.0953 8.41917 14.9968 8.2999C15.1989 8.2747 15.1189 8.25187 15.0105 8.05422C14.7113 7.5069 14.4152 6.95482 14.1133 6.4071C12.7402 6.82437 11.3764 7.27386 10.0217 7.75556C9.16035 7.30058 8.28791 6.86558 7.40442 6.45056L7.40362 6.44997Z" fill="#D0021B"/>
<path fill-rule="evenodd" clip-rule="evenodd" d="M21.4614 3.61727C20.5068 4.16898 19.5061 4.63688 18.4706 5.01573C17.6173 5.30705 16.8205 4.5728 16.8693 3.64128C16.8826 3.37417 16.8931 3.10666 16.9009 2.83876L16.9021 2.80086C16.9096 2.44861 16.9164 2.09498 16.9249 1.74214C16.9378 1.26983 16.9543 0.79673 16.9717 0.324225C16.9854 -0.000633814 17.0003 -0.00619037 17.4663 0.00174755C18.3238 -0.0125257 19.1634 0.247971 19.8623 0.745134C20.5922 1.28888 21.1584 2.12951 21.6122 3.14516C21.7368 3.42299 21.7412 3.46407 21.4614 3.61727V3.61727Z" fill="#D0021B"/>
<path fill-rule="evenodd" clip-rule="evenodd" d="M15.792 0.165283C15.8458 1.92889 15.9627 3.68575 16.0867 5.444C16.0948 5.55632 16.1026 5.66884 16.1101 5.78136C16.1395 6.22648 16.0083 6.12825 15.6493 6.27153C15.5731 6.30189 15.5007 6.33265 15.4227 6.36003C15.2028 5.91551 15.0332 5.43368 14.8472 4.97189C14.3039 3.65459 13.7486 2.39346 13.1346 1.10791C13.1205 1.07556 13.1046 1.04381 13.0894 1.01166C13.9559 0.62988 14.8626 0.346576 15.7924 0.16707L15.792 0.165283Z" fill="#D0021B"/>
<path fill-rule="evenodd" clip-rule="evenodd" d="M12.2324 1.4137C12.5467 1.92272 12.861 2.45059 13.1692 2.99989C13.4852 3.5617 13.7896 4.15287 14.0958 4.74941C12.9739 5.35944 11.8601 5.98646 10.7543 6.63049C9.88618 6.17221 9.00282 5.73933 8.10425 5.33185C8.40013 4.88951 8.70178 4.44717 9.02783 4.02051C9.89604 2.93117 10.9891 2.04199 12.2324 1.4137V1.4137Z" fill="#D0021B"/>
<path fill-rule="evenodd" clip-rule="evenodd" d="M15.8692 18.9047C15.3411 18.5854 14.8174 18.2697 14.2917 17.9494C13.766 17.6291 13.2415 17.3128 12.7139 16.9968C13.049 16.4519 13.3922 15.9117 13.7535 15.3771C14.3471 14.5023 15.4945 14.2158 16.2708 14.7306C16.9495 15.1814 17.6255 15.6359 18.3045 16.0897C17.4937 17.0274 16.6773 17.9629 15.8692 18.9057V18.9047Z" fill="#D0021B"/>
<path fill-rule="evenodd" clip-rule="evenodd" d="M19.87 14.1869C19.5747 14.5544 19.278 14.9247 18.977 15.2868C18.1006 14.6866 17.2238 14.0875 16.3466 13.4895C16.2771 13.0283 15.5794 8.70572 15.5925 8.66008C15.6044 8.62039 15.7645 8.66265 15.8173 8.67C16.4664 8.75136 17.1112 8.83253 17.7585 8.92124C17.6121 10.0877 17.4655 11.2412 17.3188 12.3816C18.1704 12.9801 19.0207 13.582 19.8698 14.1874L19.87 14.1869Z" fill="#D0021B"/>
<path fill-rule="evenodd" clip-rule="evenodd" d="M22.2422 4.73975C20.7738 5.33753 19.2661 5.8337 17.7297 6.22473C17.5008 6.2881 17.2724 6.35306 17.0446 6.41961C16.6168 6.54642 16.763 6.61429 16.7428 7.01495C16.739 7.09116 16.7364 7.16756 16.7358 7.24495C17.1903 7.29159 17.6487 7.29159 18.1051 7.30449C19.637 7.34716 21.1644 7.4309 22.6934 7.51464C22.6558 6.57485 22.5041 5.64312 22.2416 4.73995L22.2422 4.73975Z" fill="#D0021B"/>
<path fill-rule="evenodd" clip-rule="evenodd" d="M22.6749 8.39213C22.0597 8.31275 21.4247 8.22742 20.773 8.14109C20.1123 8.05477 19.4412 7.97936 18.7544 7.90295C18.5889 9.09986 18.4185 10.2855 18.2432 11.4597C19.0409 12.0352 19.8337 12.6185 20.6287 13.2017C20.9321 12.7987 21.2326 12.3928 21.5136 11.9745C22.2086 10.9032 22.6091 9.66766 22.6749 8.39233V8.39213Z" fill="#D0021B"/>
<path fill-rule="evenodd" clip-rule="evenodd" d="M14.5092 11.2996C14.6938 11.6593 14.8775 12.0193 15.0603 12.3795C14.8301 12.7268 14.5993 13.0758 14.3677 13.4264C14.1367 13.7738 13.9057 14.1237 13.6732 14.473C13.259 14.4605 12.8436 14.4503 12.4287 14.4402C12.0137 14.4301 11.5994 14.4176 11.184 14.4075C10.9999 14.0473 10.8169 13.6875 10.6323 13.3275C10.4478 12.9675 10.2646 12.6101 10.0811 12.25C10.3124 11.8999 10.5435 11.5509 10.7742 11.2029C11.006 10.8529 11.237 10.5056 11.4688 10.1561C12.2088 10.1738 12.9572 10.1865 13.6966 10.2119C13.7835 10.2141 13.8702 10.219 13.9571 10.2216C14.1494 10.577 14.3268 10.942 14.5094 11.2996H14.5092Z" fill="#D0021B"/>
<path fill-rule="evenodd" clip-rule="evenodd" d="M4.98486 12.5416C5.52325 12.8356 6.06204 13.1299 6.59864 13.4291C7.13525 13.7284 7.66867 14.0298 8.20309 14.3342C8.42952 13.7004 8.66905 13.0767 8.95263 12.4734C9.41819 11.4825 9.19771 10.3184 8.37852 9.87233C7.66411 9.48456 6.9368 9.11168 6.20492 8.75427C5.70359 9.98426 5.29574 11.2503 4.98486 12.5416V12.5416Z" fill="#D0021B"/>
</svg>
