<svg width="15" height="15" viewBox="0 0 15 15" fill="none" xmlns="http://www.w3.org/2000/svg">
<g clip-path="url(#clip0_68_15548)">
<rect width="14" height="14" transform="translate(0.53833 0.0297852)" fill="white"/>
<path d="M12.7883 5.86304C12.7883 9.94637 7.53833 13.4464 7.53833 13.4464C7.53833 13.4464 2.28833 9.94637 2.28833 5.86304C2.28833 4.47065 2.84145 3.13529 3.82602 2.15073C4.81059 1.16616 6.14594 0.613037 7.53833 0.613037C8.93072 0.613037 10.2661 1.16616 11.2506 2.15073C12.2352 3.13529 12.7883 4.47065 12.7883 5.86304Z" stroke="#4B5563" stroke-width="1.16667" stroke-linecap="round" stroke-linejoin="round"/>
<path d="M7.53833 7.61304C8.50483 7.61304 9.28833 6.82954 9.28833 5.86304C9.28833 4.89654 8.50483 4.11304 7.53833 4.11304C6.57183 4.11304 5.78833 4.89654 5.78833 5.86304C5.78833 6.82954 6.57183 7.61304 7.53833 7.61304Z" stroke="#4B5563" stroke-width="1.16667" stroke-linecap="round" stroke-linejoin="round"/>
</g>
<defs>
<clipPath id="clip0_68_15548">
<rect width="14" height="14" fill="white" transform="translate(0.53833 0.0297852)"/>
</clipPath>
</defs>
</svg>
